<svg xmlns="http://www.w3.org/2000/svg" viewBox="0 0 100 120" width="100" height="120">
  <!-- Shield shape -->
  <path d="M50 2 L95 20 L95 70 Q95 100 50 118 Q5 100 5 70 L5 20 Z" fill="#1a5e1f" stroke="#FFD700" stroke-width="3"/>
  <!-- Inner border -->
  <path d="M50 10 L88 25 L88 68 Q88 95 50 110 Q12 95 12 68 L12 25 Z" fill="none" stroke="#FFD700" stroke-width="1.5" opacity="0.6"/>
  <!-- VIF text -->
  <text x="50" y="58" text-anchor="middle" font-family="Arial,Helvetica,sans-serif" font-weight="900" font-size="28" fill="#FFD700" letter-spacing="2">VIF</text>
  <!-- Subtitle -->
  <text x="50" y="78" text-anchor="middle" font-family="Arial,Helvetica,sans-serif" font-weight="700" font-size="10" fill="#FFD700" letter-spacing="1" opacity="0.8">VAKSALA</text>
  <!-- Football icon -->
  <circle cx="50" cy="95" r="8" fill="none" stroke="#FFD700" stroke-width="1.2" opacity="0.7"/>
  <path d="M50 87 L47 91 L50 95 L53 91 Z M42 95 L46 92 L46 98 Z M58 95 L54 92 L54 98 Z M50 103 L47 99 L53 99 Z" fill="#FFD700" opacity="0.5"/>
</svg>
